<svg width="614" height="136" viewBox="0 0 614 136" fill="none" xmlns="http://www.w3.org/2000/svg">
<path d="M335 1.2C322.467 5.06667 310.467 16.4 305.533 29.0667C303.133 35.0667 302.467 39.3333 302.467 49.3333C302.467 64.9333 305.667 74.1333 314.467 83.8667C328.467 99.3333 352.467 103.333 368.333 92.6667C371.933 90.2667 375 88.5333 375 89.0667C375 89.6 376.467 91.7333 378.333 94L381.533 98L381.667 80.2667C381.667 63.0667 380.333 58.4 378.333 68.9333C375.933 82.1333 366.067 93.4667 355 95.8667C342.6 98.5333 334.2 93.8667 330.733 82.2667C328.467 74.5333 328.467 21.4667 330.733 13.7333C332.733 6.8 337.4 3.06667 345.267 1.86667C358.067 2.99309e-06 368.067 6.4 374.467 20.5333C376.6 25.3333 378.733 29.3333 379.4 29.3333C379.933 29.3333 380.333 23.0667 380.333 15.3333C380.333 0.400003 379.667 -0.93333 374.333 4L371.4 6.8L365 3.33334C359.667 0.533336 356.867 2.99309e-06 348.467 0.133336C342.867 0.133336 336.867 0.66667 335 1.2Z" fill="#183B4E"/>
<path d="M3.66665 2.53335L7.66665 3.33335L8.06665 49.0667L8.33331 94.6667H4.33331C2.19998 94.6667 0.333313 95.2 0.333313 96C0.333313 96.8 7.39998 97.3333 19 97.3333C30.6 97.3333 37.6666 96.8 37.6666 96C37.6666 95.2 36.2 94.6667 34.3333 94.6667H31V71.3333V48H44.3333H57.6666V71.3333V94.6667H54.4666C52.6 94.6667 50.7333 95.2 50.3333 96C49.8 96.8 56.3333 97.3333 68.8666 97.3333C81 97.3333 88.3333 96.8 88.3333 96C88.3333 95.2 86.6 94.6667 84.3333 94.6667H80.3333V48.8V2.80002L84.7333 2.26668C87 2.00002 80.0667 1.73335 69 1.73335C58.0666 1.73335 51 2.00002 53.4 2.26668L57.6666 2.80002V23.4667V44H44.3333H31V23.4667V2.80002L34.7333 2.26668C36.7333 2.00002 29.6666 1.73335 19 1.73335C8.33331 1.73335 1.53331 2.00002 3.66665 2.53335Z" fill="#183B4E"/>
<path d="M392.333 2.66667C392.333 3.33334 394.733 4.00001 397.667 4.00001H403V49.3333V94.6667H397.667C394.733 94.6667 392.333 95.2 392.333 96C392.333 96.8 398.6 97.3333 408.333 97.3333C418.067 97.3333 424.333 96.8 424.333 96C424.333 95.2 421.933 94.6667 419 94.6667H413.667V48V1.33334H403C396.733 1.33334 392.333 1.86667 392.333 2.66667Z" fill="black"/>
<path d="M544.333 2.66667C544.333 3.33334 546.733 4.00001 549.667 4.00001H555V49.3333V94.6667H549.667C546.733 94.6667 544.333 95.2 544.333 96C544.333 96.8 550.6 97.3333 560.333 97.3333C570.067 97.3333 576.333 96.8 576.333 96C576.333 95.2 573.933 94.6667 571 94.6667H565.667V78.1333C565.667 57.3333 566.333 54.1333 571.933 48.5333C579.133 41.3333 587.8 40.8 590.733 47.3333C591.8 49.6 592.333 58.8 592.333 72.6667V94.6667H587.8C585.267 94.6667 582.733 95.2 582.333 96C581.8 96.8 587.267 97.3333 597.533 97.3333C607.4 97.3333 613.667 96.8 613.667 96C613.667 95.2 611.533 94.6667 609 94.6667H604.333V73.4667C604.333 50 603.267 44.9333 597.533 42C589.4 37.7333 575.4 40.4 570.067 47.2C568.467 49.0667 566.867 50.6667 566.467 50.6667C566.067 50.6667 565.667 39.6 565.667 26V1.33334H555C548.733 1.33334 544.333 1.86667 544.333 2.66667Z" fill="black"/>
<path d="M509.4 22.8C504.467 25.3333 504.333 25.4667 504.333 33.3333V41.3333H499.667C497.133 41.3333 495 41.8667 495 42.6667C495 43.3333 497 44 499.533 44H504.067L504.6 66.2667C504.867 80.5333 505.667 89.7333 506.733 91.6C509.133 95.8667 515.267 98.6667 522.333 98.6667C529.933 98.6667 533 97.0667 535.667 92C538.867 85.8667 537.933 84.1333 534.6 90C532.067 94.4 530.867 95.3333 526.867 95.7333C523.4 96 521.533 95.3333 519.533 93.2C517.267 90.6667 517 88 516.6 67.2L516.2 44H522.867C526.467 44 529.933 43.3333 530.333 42.6667C530.867 41.8667 528.333 41.3333 523.8 41.3333H516.333V30.6667C516.333 24.8 515.933 20 515.4 20C514.733 20.1333 512.067 21.3333 509.4 22.8Z" fill="black"/>
<path d="M198.333 41.6C196.867 42.4 194.333 44.2667 192.733 45.7333L189.667 48.4V44.9333V41.3333H178.867C172.067 41.3333 168.467 41.8667 169 42.6667C169.4 43.3333 171.533 44 173.8 44H177.667V88.6667V133.333H172.867C170.067 133.333 168.467 133.867 169 134.667C169.533 135.467 176.067 136 184.467 136C193.267 136 199 135.467 199 134.667C199 133.867 196.867 133.333 194.333 133.333H189.667V112.667V92.1333L194.733 95.4667C198.867 98.4 200.733 98.8 207.267 98.4C229.267 96.8 240.2 68 225.533 50.2667C218.333 41.4667 205.8 37.4667 198.333 41.6ZM211.267 42.8C216.067 45.3333 217.667 52.1333 217.667 69.3333C217.667 87.8667 215.933 93.8667 210.067 96.1333C205.133 98 197.933 95.8667 193.533 91.2C190.6 88 190.333 86.6667 189.933 71.2C189.533 56.2667 189.667 54.2667 192.2 50.1333C196.6 43.0667 205.4 39.6 211.267 42.8Z" fill="black"/>
<path d="M255.667 43.4666C245.133 50.5333 241 59.2 241.933 72.5333C242.6 82.9333 247.267 90.9333 255.667 95.6C262.867 99.7333 273.8 99.7333 281 95.6C286.467 92.5333 292.333 85.2 292.333 81.6C292.333 80.4 290.6 82.2666 288.467 85.6C285.933 89.6 282.6 92.5333 278.733 94.5333C265.533 100.933 257.267 96.1333 255.667 81.2C255.133 76.5333 255 70.8 255.267 68.6666L255.667 64.6666L274.067 64.2666C284.067 64.1333 292.333 63.4666 292.333 62.8C292.333 60.4 289.133 52.4 286.733 48.9333C280.333 39.8666 264.867 37.2 255.667 43.4666ZM272.867 42.8C277 44.8 279.267 50.1333 278.733 56.8L278.333 62H267C255.8 62 255.667 62 255.267 58.6666C254.6 53.0666 257.933 44.9333 261.667 43.0666C265.8 40.9333 268.6 40.9333 272.867 42.8Z" fill="black"/>
<path d="M450.333 41.8667C441.4 45.8667 432.333 59.8667 432.333 69.6C432.333 80 442.467 94.2667 451.933 97.4667C467 102.4 482.6 92.6667 487.267 75.3334C490.067 64.6667 484.333 51.0667 473.933 43.8667C468.467 40.1334 456.333 39.0667 450.333 41.8667ZM467 43.0667C471.933 45.4667 473.533 52.1334 473.533 69.7334C473.667 91.6 470.867 97.3333 460.333 97.3333C449.8 97.3333 447 91.6 447.133 69.7334C447.133 61.0667 447.8 51.8667 448.733 49.3334C450.467 44.4 454.867 41.3334 460.333 41.3334C462.2 41.3334 465.133 42.1334 467 43.0667Z" fill="black"/>
<path d="M97.6667 42.6667C97.6667 43.3333 99.6667 44 102.2 44H106.6L118.2 70.1333C124.467 84.5333 129.667 97.0667 129.667 98C129.667 99.8667 123.8 115.733 120.733 122.4C119.533 124.8 117.4 127.467 115.933 128.267C113.667 129.333 112.867 129.067 111 126.667C107.933 122.533 102.467 123.467 101.933 128.267C101.4 132.667 105.4 135.2 111 134C118.467 132.4 121.667 126.4 137.667 84.2667L153 44H158.067C160.733 44 163 43.3333 163 42.6667C163 41.8667 158.333 41.3333 151.667 41.3333C140.333 41.3333 135.8 43.4667 145.533 44.2667L150.6 44.6667L144.067 62C140.467 71.4667 137 79.8667 136.467 80.4C135.533 81.3333 120.333 47.8667 120.333 44.9333C120.333 44.4 122.467 44 125 44C127.533 44 129.667 43.3333 129.667 42.6667C129.667 41.8667 123.4 41.3333 113.667 41.3333C103.933 41.3333 97.6667 41.8667 97.6667 42.6667Z" fill="black"/>
</svg>
