<svg width="39" height="31" viewBox="0 0 39 31" fill="none" xmlns="http://www.w3.org/2000/svg">
<g clip-path="url(#clip0_329_14)">
<path d="M33.6837 10.9622H31.4576V9.814C31.4576 8.90016 30.7078 8.15034 29.794 8.15034C28.8801 8.15034 28.1303 8.90016 28.1303 9.814V10.9622H25.9043V9.814C25.9043 7.65827 27.6617 5.92432 29.794 5.92432C31.9497 5.92432 33.6837 7.6817 33.6837 9.814V10.9622Z" fill="#FFA400"/>
<path d="M34.5971 10.9626H24.9901C24.5683 10.9626 24.2402 11.2907 24.2402 11.7125V18.8123C24.2402 19.2341 24.5683 19.5621 24.9901 19.5621H34.5971C35.0189 19.5621 35.3469 19.2341 35.3469 18.8123V11.7125C35.3235 11.2907 34.9954 10.9626 34.5971 10.9626ZM30.2622 15.6256V16.5863C30.2622 16.844 30.0513 17.0784 29.7701 17.0784C29.5124 17.0784 29.2781 16.8675 29.2781 16.5863V15.6256C28.9735 15.4616 28.786 15.1335 28.786 14.7586C28.786 14.2197 29.2312 13.7745 29.7701 13.7745C30.3091 13.7745 30.7543 14.2197 30.7543 14.7586C30.7777 15.1335 30.5668 15.4616 30.2622 15.6256Z" fill="#003A70"/>
<path d="M24.0061 9.90775H21.6864C21.3114 9.90775 21.0068 9.60314 21.0068 9.22823C21.0068 8.85332 21.3114 8.54871 21.6864 8.54871H24.0061C24.381 8.54871 24.6856 8.85332 24.6856 9.22823C24.6856 9.60314 24.381 9.90775 24.0061 9.90775Z" fill="#FFA400"/>
<path d="M25.6465 6.25264C25.5059 6.25264 25.3419 6.20578 25.2248 6.08862L23.3971 4.58898C23.1159 4.35466 23.069 3.93289 23.3033 3.62828C23.5377 3.3471 23.9594 3.30023 24.2641 3.53455L26.0917 5.03419C26.3729 5.26851 26.4198 5.69028 26.1855 5.99489C26.0214 6.15892 25.834 6.25264 25.6465 6.25264Z" fill="#FFA400"/>
<path d="M29.7938 4.65902C29.4189 4.65902 29.1143 4.3544 29.1143 3.97949V1.63631C29.1143 1.2614 29.4189 0.956787 29.7938 0.956787C30.1687 0.956787 30.4733 1.2614 30.4733 1.63631V3.97949C30.4733 4.3544 30.1687 4.65902 29.7938 4.65902Z" fill="#FFA400"/>
<path d="M33.9175 6.25264C33.73 6.25264 33.5191 6.15892 33.402 5.99489C33.1677 5.71371 33.2145 5.26851 33.4957 5.03419L35.3234 3.53455C35.6046 3.30023 36.0498 3.3471 36.2841 3.62828C36.5184 3.90946 36.4716 4.35466 36.1904 4.58898L34.3627 6.08862C34.2221 6.20578 34.0815 6.25264 33.9175 6.25264Z" fill="#FFA400"/>
<path d="M37.8782 9.90763H35.535C35.1601 9.90763 34.8555 9.60302 34.8555 9.22811C34.8555 8.8532 35.1601 8.54858 35.535 8.54858H37.8782C38.2531 8.54858 38.5577 8.8532 38.5577 9.22811C38.5577 9.60302 38.2531 9.90763 37.8782 9.90763Z" fill="#FFA400"/>
<path d="M0.0585938 19.4676V11.8991H1.88628V17.8743H4.81526V19.4676H0.0585938ZM10.8607 16.8667V17.0776V17.2885H6.99442C7.01785 17.429 7.06471 17.5696 7.13501 17.6868C7.2053 17.804 7.29903 17.9211 7.41619 17.9914C7.53335 18.0851 7.67394 18.1554 7.81453 18.2023C7.95512 18.2492 8.11914 18.2726 8.25974 18.2726C8.54092 18.2726 8.77524 18.2257 8.96269 18.1086C9.15015 18.0148 9.31417 17.8743 9.43133 17.7102L10.6498 18.4835C10.392 18.8584 10.064 19.1161 9.66565 19.327C9.26731 19.5145 8.77524 19.6316 8.2363 19.6316C7.83796 19.6316 7.46305 19.5613 7.11158 19.4442C6.7601 19.327 6.45548 19.1396 6.1743 18.9053C5.91655 18.6709 5.70567 18.3663 5.54164 18.0148C5.37762 17.6634 5.30732 17.265 5.30732 16.8198C5.30732 16.3746 5.37762 15.9997 5.54164 15.6482C5.68223 15.2968 5.89312 14.9921 6.15087 14.7578C6.40862 14.5235 6.71324 14.3126 7.06471 14.1955C7.41619 14.0549 7.7911 13.9846 8.18944 13.9846C8.58778 13.9846 8.93926 14.0549 9.2673 14.172C9.59535 14.3126 9.87653 14.5001 10.1109 14.7344C10.3452 14.9921 10.5326 15.2968 10.6498 15.6482C10.7904 16.0231 10.8607 16.4215 10.8607 16.8667ZM9.24387 16.2106C9.24387 15.9294 9.15015 15.6951 8.98612 15.4842C8.8221 15.2733 8.54092 15.1796 8.18944 15.1796C8.02542 15.1796 7.86139 15.203 7.7208 15.2499C7.58021 15.2968 7.46305 15.367 7.34589 15.4608C7.22874 15.5545 7.15844 15.6717 7.08814 15.7888C7.01785 15.906 6.99442 16.0466 6.97098 16.1872H9.24387V16.2106ZM13.6725 15.4608V17.4993C13.6725 17.7571 13.7194 17.9445 13.8131 18.0617C13.9068 18.1789 14.0708 18.2492 14.3286 18.2492C14.4223 18.2492 14.516 18.2492 14.6098 18.2257C14.7035 18.2023 14.7972 18.1789 14.8441 18.1554L14.8675 19.4442C14.7504 19.4911 14.5863 19.5145 14.3989 19.5613C14.2114 19.5848 14.024 19.6082 13.8365 19.6082C13.485 19.6082 13.1804 19.5613 12.9461 19.4676C12.7118 19.3739 12.5009 19.2567 12.3603 19.0927C12.2197 18.9287 12.1026 18.7178 12.0557 18.4835C12.0088 18.2492 11.962 17.9914 11.962 17.7102V15.4608H11.095V14.1486H11.9385V12.7427H13.6725V14.1486H14.9144V15.4608H13.6725ZM16.5312 11.7585C16.0157 11.7585 15.5939 12.1335 15.5939 12.6255C15.5939 13.141 15.9454 13.4691 16.4609 13.4691C16.5077 13.4691 16.5546 13.4691 16.578 13.4456C16.4843 13.8205 16.1328 14.1017 15.7814 14.1486H15.7111V14.9687H15.8048C16.2266 14.9218 16.6249 14.7344 16.9295 14.4532C17.3279 14.0783 17.5387 13.5159 17.5387 12.8598C17.5387 12.2272 17.117 11.7585 16.5312 11.7585ZM20.5849 15.7185C20.4443 15.5779 20.2803 15.4608 20.0928 15.367C19.9054 15.2733 19.6945 15.2265 19.4836 15.2265C19.3196 15.2265 19.179 15.2499 19.0384 15.3202C18.8978 15.3905 18.8275 15.4842 18.8275 15.6482C18.8275 15.7888 18.8978 15.906 19.0618 15.9763C19.2258 16.0466 19.4602 16.1169 19.8116 16.1872C20.0225 16.234 20.21 16.2809 20.4209 16.3746C20.6317 16.4683 20.7958 16.5621 20.9598 16.6792C21.1238 16.7964 21.2644 16.9604 21.3581 17.1479C21.4519 17.3353 21.4987 17.5462 21.4987 17.804C21.4987 18.132 21.4284 18.4132 21.2878 18.6475C21.1472 18.8818 20.9832 19.0693 20.7489 19.2099C20.538 19.3505 20.2803 19.4442 20.0225 19.5145C19.7413 19.5848 19.4836 19.6082 19.2024 19.6082C18.7572 19.6082 18.3354 19.5379 17.9371 19.3973C17.5153 19.2567 17.1638 19.0458 16.9061 18.7881L17.8902 17.7571C18.0542 17.9211 18.2417 18.0617 18.476 18.1789C18.7103 18.296 18.9447 18.3429 19.2024 18.3429C19.343 18.3429 19.4836 18.3195 19.6242 18.2492C19.7648 18.1789 19.8351 18.0617 19.8351 17.8977C19.8351 17.7337 19.7413 17.6165 19.5773 17.5228C19.4133 17.4525 19.1321 17.3588 18.7806 17.2885C18.5932 17.2416 18.4057 17.1947 18.2183 17.1244C18.0308 17.0541 17.8668 16.9604 17.7262 16.8433C17.5856 16.7261 17.4684 16.5621 17.3747 16.398C17.281 16.2106 17.2341 15.9997 17.2341 15.7654C17.2341 15.4373 17.3044 15.1796 17.445 14.9453C17.5856 14.711 17.7496 14.5469 17.9605 14.4063C18.1714 14.2658 18.4057 14.1486 18.6635 14.1017C18.9212 14.0314 19.179 14.008 19.4367 14.008C19.8351 14.008 20.2334 14.0783 20.6083 14.1955C20.9832 14.3126 21.3113 14.5001 21.569 14.7578L20.5849 15.7185ZM0.0585938 28.2311V20.6626H5.1433V22.2091H1.81598V23.6385H4.95585V25.0913H1.81598V26.6612H5.33076V28.2311H0.0585938ZM9.94683 28.2311V25.3256C9.94683 25.185 9.9234 25.0444 9.89996 24.9038C9.87653 24.7632 9.82967 24.6461 9.78281 24.5523C9.73594 24.4586 9.64221 24.3649 9.54849 24.318C9.45476 24.2477 9.31417 24.2243 9.15015 24.2243C8.98612 24.2243 8.84553 24.2477 8.72837 24.318C8.61121 24.3883 8.51749 24.4586 8.42376 24.5758C8.35346 24.6929 8.28317 24.8101 8.2363 24.9507C8.18944 25.0913 8.16601 25.2318 8.16601 25.3724V28.2546H6.40862V22.9355H8.09571V23.6619H8.11914C8.18944 23.5448 8.25974 23.4276 8.3769 23.3339C8.47062 23.2167 8.61121 23.123 8.72837 23.0527C8.86896 22.9824 9.00955 22.9121 9.17358 22.8652C9.3376 22.8184 9.50162 22.7949 9.68908 22.7949C10.0406 22.7949 10.3452 22.8652 10.6029 22.9824C10.8607 23.0996 11.0481 23.287 11.2121 23.4745C11.3762 23.6853 11.4699 23.9197 11.5402 24.1774C11.6105 24.4352 11.6339 24.6929 11.6339 24.9741V28.2546H9.94683V28.2311ZM16.2266 24.6226C16.1328 24.5055 15.9922 24.3883 15.8282 24.318C15.6642 24.2477 15.4767 24.2008 15.3127 24.2008C15.1253 24.2008 14.9612 24.2477 14.8206 24.318C14.6801 24.3883 14.5395 24.482 14.4457 24.6226C14.352 24.7632 14.2583 24.8804 14.188 25.0444C14.1177 25.2084 14.0943 25.3724 14.0943 25.5599C14.0943 25.7474 14.1177 25.9114 14.188 26.0754C14.2349 26.2394 14.3286 26.38 14.4457 26.4972C14.5629 26.6143 14.6801 26.7315 14.8441 26.8018C15.0081 26.8721 15.1721 26.9189 15.3596 26.9189C15.547 26.9189 15.7111 26.8955 15.8985 26.8252C16.0625 26.7549 16.2031 26.6612 16.3203 26.5206L17.281 27.7156C17.0701 27.9265 16.7655 28.0905 16.4374 28.2077C16.086 28.3249 15.7111 28.3951 15.3362 28.3951C14.9144 28.3951 14.516 28.3249 14.1646 28.2077C13.7896 28.0905 13.485 27.9031 13.2039 27.6453C12.9461 27.411 12.7352 27.1064 12.5712 26.7549C12.4072 26.4034 12.3369 26.0051 12.3369 25.5599C12.3369 25.1147 12.4072 24.7398 12.5712 24.3883C12.7352 24.0368 12.9461 23.7322 13.2039 23.4979C13.4616 23.2636 13.7896 23.0527 14.1646 22.9355C14.5395 22.7949 14.9144 22.7481 15.3362 22.7481C15.5236 22.7481 15.7111 22.7715 15.8985 22.7949C16.086 22.8418 16.2734 22.8887 16.4374 22.9355C16.6015 23.0058 16.7655 23.0761 16.9295 23.1699C17.0701 23.2636 17.2107 23.3573 17.3044 23.4745L16.2266 24.6226ZM21.3347 24.3649C21.2644 24.3414 21.1707 24.318 21.1004 24.318H20.8895C20.6552 24.318 20.4677 24.3649 20.3037 24.4352C20.1397 24.5289 20.0225 24.6226 19.9288 24.7398C19.8351 24.8569 19.7648 24.9975 19.7179 25.1381C19.671 25.2787 19.6476 25.3959 19.6476 25.513V28.2311H17.8902V22.9121H19.5773V23.6853H19.6007C19.7413 23.4042 19.9288 23.1933 20.1865 23.0293C20.4443 22.8652 20.7255 22.7715 21.0535 22.7715H21.2644C21.3347 22.7715 21.3816 22.7949 21.4284 22.7949L21.3347 24.3649ZM25.4587 29.0278C25.3415 29.309 25.2244 29.5433 25.1072 29.7776C24.9666 29.9885 24.826 30.176 24.6386 30.34C24.4511 30.504 24.2402 30.5977 24.0059 30.6915C23.7716 30.7618 23.467 30.8086 23.139 30.8086C22.9749 30.8086 22.8109 30.8086 22.6235 30.7852C22.4594 30.7618 22.2954 30.7383 22.1782 30.6915L22.3657 29.2153C22.4594 29.2387 22.5532 29.2621 22.6469 29.2856C22.7406 29.309 22.8343 29.309 22.9281 29.309C23.2092 29.309 23.3967 29.2387 23.5139 29.1215C23.631 29.0044 23.7482 28.8169 23.8185 28.5826L23.9825 28.1374L21.7565 22.9121H23.7013L24.8963 26.3331H24.9198L25.9742 22.9121H27.8253L25.4587 29.0278ZM34.2222 25.5599C34.2222 25.9348 34.1753 26.2863 34.0582 26.6378C33.941 26.9892 33.777 27.2704 33.5661 27.5516C33.3552 27.8094 33.074 28.0202 32.7694 28.1843C32.4648 28.3483 32.0899 28.4186 31.6916 28.4186C31.3635 28.4186 31.0589 28.3483 30.7543 28.2311C30.4731 28.0905 30.2388 27.9265 30.0748 27.6922H30.0513V30.8555H28.294V22.9824H29.9576V23.6385H29.981C30.1451 23.4276 30.3794 23.2401 30.6606 23.0761C30.9418 22.9121 31.2932 22.8418 31.6916 22.8418C32.0665 22.8418 32.418 22.9121 32.746 23.0761C33.0506 23.2167 33.3318 23.4276 33.5427 23.6853C33.7536 23.9431 33.9176 24.2477 34.0348 24.5758C34.1519 24.8335 34.2222 25.185 34.2222 25.5599ZM32.5117 25.5599C32.5117 25.3959 32.4883 25.2319 32.4414 25.0678C32.3945 24.9038 32.3008 24.7632 32.2071 24.6461C32.1133 24.5289 31.9728 24.4117 31.8087 24.3414C31.6447 24.2711 31.4807 24.2243 31.2698 24.2243C31.0589 24.2243 30.8949 24.2711 30.7309 24.3414C30.5668 24.4117 30.4497 24.5289 30.3325 24.6461C30.2154 24.7632 30.1451 24.9272 30.0748 25.0913C30.0045 25.2553 29.981 25.4193 29.981 25.5833C29.981 25.7474 30.0045 25.9114 30.0748 26.0754C30.1451 26.2394 30.2154 26.38 30.3325 26.5206C30.4497 26.6378 30.5668 26.7549 30.7309 26.8252C30.8949 26.8955 31.0589 26.9424 31.2698 26.9424C31.4807 26.9424 31.6681 26.8955 31.8087 26.8252C31.9728 26.7549 32.0899 26.6378 32.2071 26.5206C32.3008 26.4034 32.3945 26.2394 32.4414 26.0754C32.4883 25.8879 32.5117 25.7239 32.5117 25.5599ZM37.0106 24.2243V26.2629C37.0106 26.5206 37.0575 26.7081 37.1512 26.8252C37.2449 26.9424 37.4089 27.0127 37.6667 27.0127C37.7604 27.0127 37.8541 27.0127 37.9479 26.9892C38.0416 26.9658 38.1353 26.9424 38.1822 26.9189L38.2056 28.2077C38.0885 28.2546 37.9244 28.278 37.737 28.3249C37.5495 28.3483 37.3621 28.3717 37.1746 28.3717C36.8231 28.3717 36.5185 28.3249 36.2842 28.2311C36.0499 28.1374 35.839 28.0202 35.6984 27.8562C35.5578 27.6922 35.4407 27.4813 35.3938 27.247C35.3469 27.0127 35.3001 26.7549 35.3001 26.4737V24.2243H34.4565V22.9121H35.3001V21.5062H37.0106V22.9121H38.2525V24.2243H37.0106Z" fill="#003A70"/>
</g>
<defs>
<clipPath id="clip0_329_14">
<rect width="38.593" height="30" fill="white" transform="translate(0 0.909912)"/>
</clipPath>
</defs>
</svg>
